# xmcd
#
# Track frame offsets: 
#        150
#        6732
#        21530
#        32192
#        38025
#        42550
#        51905
#        59682
#        65464
#        80679
#        91152
#        105830
#        111887
#        126897
#        133915
#        137545
#        145632
#        149000
#        151332
#        169027
#
# Disc length: 2274 seconds
#
# Revision: 4
# Processed by: cddbd v1.5.2PL0 Copyright (c) Steve Scherf et al.
# Submitted via: ExactAudioCopyFreeDBPlugin 1.0
#
DISCID=2708e014
DTITLE=VeggieTales - VeggieTunes 2
DYEAR=1998
DGENRE=Christian
TTITLE0=The VeggieTales Theme Song
TTITLE1=The Dance Of The Cucumber
TTITLE2=Good Morning George
TTITLE3=Think Of Me
TTITLE4=The Bunny Song (Reprise)
TTITLE5=The New Improved Bunny Song
TTITLE6=Stand
TTITLE7=Stand (Reprise)
TTITLE8=I Love My Lips
TTITLE9=Big Things Too
TTITLE10=The Pirates Who Don't Do Anything
TTITLE11=It's Laura's Fault
TTITLE12=Larry-Boy
TTITLE13=Promised Land
TTITLE14=The Lord Has Given
TTITLE15=Keep Walking
TTITLE16=The Lord Has Given (Reprise)
TTITLE17=Promised Land (Reprise)
TTITLE18=The Song Of The Cebu
TTITLE19=What We Have Learned
EXTD=
EXTT0=
EXTT1=
EXTT2=
EXTT3=
EXTT4=
EXTT5=
EXTT6=
EXTT7=
EXTT8=
EXTT9=
EXTT10=
EXTT11=
EXTT12=
EXTT13=
EXTT14=
EXTT15=
EXTT16=
EXTT17=
EXTT18=
EXTT19=
PLAYORDER=
